<svg version="1.1" xmlns="http://www.w3.org/2000/svg" viewBox="0 0 2604.7426521111156 1006.4000847871303" width="5209.485304222231" height="2012.8001695742605" filter="invert(93%) hue-rotate(180deg)">
  <!-- svg-source:excalidraw -->
  
  <defs>
    <style class="style-fonts">
      @font-face {
        font-family: "Virgil";
        src: url("https://excalidraw.com/Virgil.woff2");
      }
      @font-face {
        font-family: "Cascadia";
        src: url("https://excalidraw.com/Cascadia.woff2");
      }
      @font-face {
        font-family: "Assistant";
        src: url("https://excalidraw.com/Assistant-Regular.woff2");
      }
    </style>
    
  </defs>
  <rect x="0" y="0" width="2604.7426521111156" height="1006.4000847871303" fill="#ffffff"></rect><g stroke-linecap="round" transform="translate(22.268653349352007 851.8594264203884) rotate(0 116.89224776967103 66.62146108411389)"><path d="M32 0 C90.55 1.34, 149.48 2.48, 201.78 0 M32 0 C72.78 1.68, 113.21 0.91, 201.78 0 M201.78 0 C222.15 -0.15, 235.4 12.66, 233.78 32 M201.78 0 C221.76 1.8, 235.76 9.51, 233.78 32 M233.78 32 C235 56.76, 234.39 79.68, 233.78 101.24 M233.78 32 C233.16 55.35, 233.97 78.71, 233.78 101.24 M233.78 101.24 C234.67 122.21, 222.24 134.74, 201.78 133.24 M233.78 101.24 C233.74 122.54, 224.15 132.76, 201.78 133.24 M201.78 133.24 C138.56 132.72, 71.59 132.35, 32 133.24 M201.78 133.24 C154.4 133.01, 106.04 132.93, 32 133.24 M32 133.24 C11.93 134.15, -1.64 122.24, 0 101.24 M32 133.24 C12.42 131.24, -0.42 122.92, 0 101.24 M0 101.24 C-0.31 85.54, -0.42 67.13, 0 32 M0 101.24 C0.41 87.54, 0.61 73.93, 0 32 M0 32 C-0.79 12.1, 10.2 -0.37, 32 0 M0 32 C-0.2 12.85, 12.3 2.25, 32 0" stroke="#1971c2" stroke-width="2" fill="none"></path></g><g transform="translate(91.03094964197226 905.9808875045019) rotate(0 48.12995147705078 12.5)"><text x="48.12995147705078" y="17.52" font-family="Virgil, Segoe UI Emoji" font-size="20px" fill="#1971c2" text-anchor="middle" style="white-space: pre;" direction="ltr" dominant-baseline="alphabetic">node-base</text></g><g stroke-linecap="round" transform="translate(10 28.349518718822765) rotate(0 116.89224776967103 66.62146108411366)"><path d="M32 0 C86.68 -0.95, 139.08 -1.35, 201.78 0 M32 0 C72.04 0.64, 112.13 -0.54, 201.78 0 M201.78 0 C223.85 -0.76, 235.44 12.16, 233.78 32 M201.78 0 C224.94 -0.96, 232.48 10.23, 233.78 32 M233.78 32 C232.42 45.15, 232.64 60.55, 233.78 101.24 M233.78 32 C234.39 50.14, 233.73 70.06, 233.78 101.24 M233.78 101.24 C234.65 120.63, 222.4 132.51, 201.78 133.24 M233.78 101.24 C232.85 122.56, 224.32 132.07, 201.78 133.24 M201.78 133.24 C147.79 131.27, 91.46 132.15, 32 133.24 M201.78 133.24 C142.82 131.79, 85.69 132.28, 32 133.24 M32 133.24 C8.83 135.2, 1.69 123.95, 0 101.24 M32 133.24 C9.78 131.91, 0.4 124.35, 0 101.24 M0 101.24 C1.15 83.27, -2.19 67.97, 0 32 M0 101.24 C-1.28 76.93, 0.35 53.36, 0 32 M0 32 C-0.8 10, 9.46 -1.66, 32 0 M0 32 C-0.02 9.99, 11.11 -0.98, 32 0" stroke="#1971c2" stroke-width="2" fill="none"></path></g><g transform="translate(70.6023002599054 82.4709798029362) rotate(0 56.289947509765625 12.5)"><text x="56.289947509765625" y="17.52" font-family="Virgil, Segoe UI Emoji" font-size="20px" fill="#1971c2" text-anchor="middle" style="white-space: pre;" direction="ltr" dominant-baseline="alphabetic">golang-base</text></g><g stroke-linecap="round" transform="translate(1941.0535549891965 10) rotate(0 116.89224776967103 66.62146108411366)"><path d="M32 0 C75 1.57, 122.59 2.78, 201.78 0 M32 0 C97.88 -2.13, 164.28 -1.66, 201.78 0 M201.78 0 C223.2 -1.2, 234.76 9.72, 233.78 32 M201.78 0 C223.17 -0.06, 233.3 10.04, 233.78 32 M233.78 32 C232.62 50.59, 232.93 67.03, 233.78 101.24 M233.78 32 C234.77 55.04, 234.76 78.22, 233.78 101.24 M233.78 101.24 C235.58 123.83, 224.23 134.91, 201.78 133.24 M233.78 101.24 C235.02 120.67, 222.03 132.84, 201.78 133.24 M201.78 133.24 C163.61 133.02, 120.31 135.36, 32 133.24 M201.78 133.24 C140.06 132.61, 78.7 132.82, 32 133.24 M32 133.24 C8.94 132.49, -1.71 121.48, 0 101.24 M32 133.24 C8.89 135.43, -2.04 122.61, 0 101.24 M0 101.24 C0.42 80.27, -0.26 57.71, 0 32 M0 101.24 C0.22 85.03, -0.01 67.23, 0 32 M0 32 C-1.7 9.09, 12.32 1.56, 32 0 M0 32 C-1.52 12.5, 12.89 -1.49, 32 0" stroke="#1971c2" stroke-width="2" fill="none"></path></g><g transform="translate(2004.6258564698046 64.12146108411343) rotate(0 53.3199462890625 12.5)"><text x="53.3199462890625" y="17.52" font-family="Virgil, Segoe UI Emoji" font-size="20px" fill="#1971c2" text-anchor="middle" style="white-space: pre;" direction="ltr" dominant-baseline="alphabetic">alpine-base</text></g><g stroke-linecap="round" transform="translate(2006.504459528811 427.1190157624328) rotate(0 116.89224776967103 66.62146108411366)"><path d="M32 0 C74.51 -1.8, 112.61 -2.6, 201.78 0 M32 0 C97.76 2.09, 161.28 1.25, 201.78 0 M201.78 0 C224.41 1.75, 232.75 11.49, 233.78 32 M201.78 0 C222.63 1.33, 231.67 9.19, 233.78 32 M233.78 32 C234.75 47.61, 235.52 57.98, 233.78 101.24 M233.78 32 C233.55 45.7, 232.76 61.3, 233.78 101.24 M233.78 101.24 C233.04 121.53, 222.43 134.3, 201.78 133.24 M233.78 101.24 C234.88 121.95, 223.83 132.31, 201.78 133.24 M201.78 133.24 C167.07 132.84, 132.94 132.65, 32 133.24 M201.78 133.24 C138.05 131.07, 74.52 131.19, 32 133.24 M32 133.24 C9.54 131.78, -1.26 120.72, 0 101.24 M32 133.24 C9.86 133.36, -0.69 124.36, 0 101.24 M0 101.24 C0.6 80.96, -0.78 58.04, 0 32 M0 101.24 C0.1 76.45, -1.06 51.85, 0 32 M0 32 C-1.42 12.03, 10.5 -0.71, 32 0 M0 32 C0.41 12.56, 8.84 0.78, 32 0" stroke="#2f9e44" stroke-width="2" fill="none"></path></g><g transform="translate(2076.25676894399 481.24047684654624) rotate(0 47.13993835449219 12.5)"><text x="47.13993835449219" y="17.52" font-family="Virgil, Segoe UI Emoji" font-size="20px" fill="#2f9e44" text-anchor="middle" style="white-space: pre;" direction="ltr" dominant-baseline="alphabetic">go-pipeline</text></g><g stroke-linecap="round" transform="translate(2025.2114228109876 863.1571626189034) rotate(0 116.89224776967103 66.62146108411343)"><path d="M32 0 C88.14 0.81, 146.13 2.23, 201.78 0 M32 0 C92.58 1.56, 153.15 0.67, 201.78 0 M201.78 0 C221.82 0.81, 232.61 12.37, 233.78 32 M201.78 0 C224.78 -1.48, 235.54 8.82, 233.78 32 M233.78 32 C234.01 55.48, 234.82 83.45, 233.78 101.24 M233.78 32 C233.06 52.16, 233.86 71.61, 233.78 101.24 M233.78 101.24 C232.02 123.67, 224.93 133.34, 201.78 133.24 M233.78 101.24 C232.05 124.62, 225.01 134.14, 201.78 133.24 M201.78 133.24 C159.2 132.99, 120.53 135.11, 32 133.24 M201.78 133.24 C160.64 133.99, 121.69 133.98, 32 133.24 M32 133.24 C9.07 132.07, 1.5 120.83, 0 101.24 M32 133.24 C10.43 132.03, -2.25 121.01, 0 101.24 M0 101.24 C-0.05 87.12, 0.92 73.62, 0 32 M0 101.24 C0.45 75.95, 0.48 52.78, 0 32 M0 32 C-0.15 10.82, 10.38 -0.35, 32 0 M0 32 C-0.78 10.72, 10.48 1.33, 32 0" stroke="#2f9e44" stroke-width="2" fill="none"></path></g><g transform="translate(2084.1437401607363 917.2786237030177) rotate(0 57.959930419921875 12.5)"><text x="57.959930419921875" y="17.52" font-family="Virgil, Segoe UI Emoji" font-size="20px" fill="#2f9e44" text-anchor="middle" style="white-space: pre;" direction="ltr" dominant-baseline="alphabetic">node-pipeline</text></g><g stroke-linecap="round" transform="translate(2360.9581565717735 659.3524400544725) rotate(0 116.89224776967103 66.62146108411366)"><path d="M32 0 C90.18 -1.62, 148.43 -2.14, 201.78 0 M32 0 C66.26 -1.04, 101.54 -0.92, 201.78 0 M201.78 0 C222.37 -0.16, 234.94 12.66, 233.78 32 M201.78 0 C221.77 2.08, 232.18 11.19, 233.78 32 M233.78 32 C232.94 46.15, 232.98 59.04, 233.78 101.24 M233.78 32 C233.73 51.74, 233.87 72.39, 233.78 101.24 M233.78 101.24 C234.86 122.51, 221.13 134.79, 201.78 133.24 M233.78 101.24 C232.02 122.86, 222.15 134.75, 201.78 133.24 M201.78 133.24 C159.91 134.95, 116.6 135.43, 32 133.24 M201.78 133.24 C163.38 133.53, 124.96 132.96, 32 133.24 M32 133.24 C11.56 133.67, 1.33 124.01, 0 101.24 M32 133.24 C11.21 132.09, -1.76 124.28, 0 101.24 M0 101.24 C1.25 77.45, -1.49 56.55, 0 32 M0 101.24 C-1.44 85.44, -0.16 67.19, 0 32 M0 32 C-0.52 12.01, 11.68 -0.98, 32 0 M0 32 C-1.22 12.68, 12.73 -0.01, 32 0" stroke="#2f9e44" stroke-width="2" fill="none"></path></g><g transform="translate(2385.170510847792 713.4739011385864) rotate(0 92.67989349365234 12.5)"><text x="92.67989349365234" y="17.52" font-family="Virgil, Segoe UI Emoji" font-size="20px" fill="#2f9e44" text-anchor="middle" style="white-space: pre;" direction="ltr" dominant-baseline="alphabetic">node-pipeline-static</text></g><g stroke-linecap="round" transform="translate(281.7718941253247 357.35846757311356) rotate(0 116.89224776967103 66.62146108411366)"><path d="M32 0 C94.24 -2.67, 157.22 -1.3, 201.78 0 M32 0 C90.08 0.21, 147.49 -0.44, 201.78 0 M201.78 0 C222.19 0.43, 231.97 11.46, 233.78 32 M201.78 0 C223.46 2.3, 235.72 10.67, 233.78 32 M233.78 32 C233.83 53.75, 235.2 73.93, 233.78 101.24 M233.78 32 C234.74 55.14, 233.5 80.59, 233.78 101.24 M233.78 101.24 C233.73 123.08, 223.54 134.34, 201.78 133.24 M233.78 101.24 C234.2 122.74, 222.11 133.25, 201.78 133.24 M201.78 133.24 C164.44 132.4, 127.06 134.77, 32 133.24 M201.78 133.24 C137.1 134.09, 71.1 134.23, 32 133.24 M32 133.24 C12.55 132.04, 0 123.28, 0 101.24 M32 133.24 C9.61 131.1, 0.67 123.59, 0 101.24 M0 101.24 C0.5 77.59, -1 52.92, 0 32 M0 101.24 C0.39 80.11, -1.13 60.1, 0 32 M0 32 C-0.29 9.65, 10.76 0.42, 32 0 M0 32 C1.11 11.76, 11.68 -1.44, 32 0" stroke="#1e1e1e" stroke-width="2" fill="none"></path></g><g transform="translate(345.6542007939215 411.47992865722745) rotate(0 53.00994110107422 12.5)"><text x="53.00994110107422" y="17.52" font-family="Virgil, Segoe UI Emoji" font-size="20px" fill="#1e1e1e" text-anchor="middle" style="white-space: pre;" direction="ltr" dominant-baseline="alphabetic">turbo-base</text></g><g stroke-linecap="round"><g transform="translate(199.45621313824813 832.8453671198504) rotate(0 83.14254099722712 -164.400962394614)"><path d="M-0.1 1.14 C27.8 -53.43, 139.22 -272.72, 167.14 -327.63 M-1.62 0.69 C26.23 -54.16, 138.5 -273.95, 166.64 -329.14" stroke="#1e1e1e" stroke-width="2" fill="none"></path></g><g transform="translate(199.45621313824813 832.8453671198504) rotate(0 83.14254099722712 -164.400962394614)"><path d="M163.57 -304.33 C166.36 -309.76, 167.27 -316.21, 166.64 -329.14 M163.57 -304.33 C164.78 -312.19, 165.41 -321.15, 166.64 -329.14" stroke="#1e1e1e" stroke-width="2" fill="none"></path></g><g transform="translate(199.45621313824813 832.8453671198504) rotate(0 83.14254099722712 -164.400962394614)"><path d="M148.34 -312.1 C155.33 -315.37, 160.44 -319.68, 166.64 -329.14 M148.34 -312.1 C154.71 -317.45, 160.51 -323.77, 166.64 -329.14" stroke="#1e1e1e" stroke-width="2" fill="none"></path></g></g><mask></mask><g stroke-linecap="round" transform="translate(616.1693664502923 22.47665770034564) rotate(0 116.8922477696708 66.62146108411366)"><path d="M32 0 C75.2 -2.01, 120.1 -0.7, 201.78 0 M32 0 C96.91 -0.33, 163.45 -1.32, 201.78 0 M201.78 0 C223.9 0.26, 232.5 11.68, 233.78 32 M201.78 0 C224.14 1.91, 235.78 8.95, 233.78 32 M233.78 32 C233.91 51.45, 232.36 74.54, 233.78 101.24 M233.78 32 C233.52 47.17, 234.1 64.74, 233.78 101.24 M233.78 101.24 C232.7 121.78, 224.62 134.9, 201.78 133.24 M233.78 101.24 C235.53 123.04, 224.81 134.56, 201.78 133.24 M201.78 133.24 C141.32 133.37, 78.48 132.98, 32 133.24 M201.78 133.24 C151.52 132.74, 100.76 134.26, 32 133.24 M32 133.24 C9.52 133.81, 1.27 123.98, 0 101.24 M32 133.24 C8.76 132.54, -0.39 121.01, 0 101.24 M0 101.24 C0.98 78.08, -0.08 50.49, 0 32 M0 101.24 C1.04 76.39, 0.05 50.98, 0 32 M0 32 C0.35 9.21, 9.81 -1.41, 32 0 M0 32 C-1.35 10.79, 9.64 -1.57, 32 0" stroke="#1e1e1e" stroke-width="2" fill="none"></path></g><g transform="translate(678.7016670153735 76.59811878445907) rotate(0 54.359947204589844 12.5)"><text x="54.359947204589844" y="17.52" font-family="Virgil, Segoe UI Emoji" font-size="20px" fill="#1e1e1e" text-anchor="middle" style="white-space: pre;" direction="ltr" dominant-baseline="alphabetic">r3mvp-base</text></g><g stroke-linecap="round"><g transform="translate(530.004034880636 429.6531310038931) rotate(0 48.196463768649664 -129.23314089083078)"><path d="M0.21 0.3 C16.4 -42.43, 81.12 -214.42, 97.21 -257.46 M-1.15 -0.59 C14.95 -43.54, 80.48 -215.81, 96.7 -259.06" stroke="#1e1e1e" stroke-width="2" fill="none"></path></g><g transform="translate(530.004034880636 429.6531310038931) rotate(0 48.196463768649664 -129.23314089083078)"><path d="M96.39 -234.06 C97.21 -240.33, 98.48 -248.75, 96.7 -259.06 M96.39 -234.06 C95.56 -242.65, 97.36 -250.39, 96.7 -259.06" stroke="#1e1e1e" stroke-width="2" fill="none"></path></g><g transform="translate(530.004034880636 429.6531310038931) rotate(0 48.196463768649664 -129.23314089083078)"><path d="M80.39 -240.11 C86.05 -244.56, 92.2 -251.13, 96.7 -259.06 M80.39 -240.11 C85.03 -246.58, 92.26 -252.27, 96.7 -259.06" stroke="#1e1e1e" stroke-width="2" fill="none"></path></g></g><mask></mask><g stroke-linecap="round"><g transform="translate(260.82629839109677 69.85106656335392) rotate(0 168.58990384378149 -1.8290866664701753)"><path d="M-0.83 -0.03 C55.47 -0.48, 281.5 -2.01, 337.99 -2.54 M0.94 -1.1 C57.13 -1.86, 281.32 -3.36, 337.46 -4.07" stroke="#1e1e1e" stroke-width="2" fill="none"></path></g><g transform="translate(260.82629839109677 69.85106656335392) rotate(0 168.58990384378149 -1.8290866664701753)"><path d="M314.05 4.7 C321.36 3.44, 330.67 0.8, 337.46 -4.07 M314.05 4.7 C322.15 1.73, 330.08 -0.57, 337.46 -4.07" stroke="#1e1e1e" stroke-width="2" fill="none"></path></g><g transform="translate(260.82629839109677 69.85106656335392) rotate(0 168.58990384378149 -1.8290866664701753)"><path d="M313.89 -12.4 C321.27 -8.27, 330.63 -5.52, 337.46 -4.07 M313.89 -12.4 C321.9 -9.62, 329.88 -6.17, 337.46 -4.07" stroke="#1e1e1e" stroke-width="2" fill="none"></path></g></g><mask></mask><g stroke-linecap="round" transform="translate(644.0823640731005 536.7028199343663) rotate(0 116.89224776967103 66.62146108411366)"><path d="M32 0 C95.92 1.76, 160.26 0.39, 201.78 0 M32 0 C66.5 1.75, 102.06 1.81, 201.78 0 M201.78 0 C224.59 0.05, 232.35 11.74, 233.78 32 M201.78 0 C221.63 1.47, 235.38 9.73, 233.78 32 M233.78 32 C232.89 52.66, 234.84 77.61, 233.78 101.24 M233.78 32 C233.13 45.7, 232.43 60.92, 233.78 101.24 M233.78 101.24 C233.18 121.7, 221.28 132.49, 201.78 133.24 M233.78 101.24 C235.43 122.29, 223.23 131.26, 201.78 133.24 M201.78 133.24 C163.72 133.55, 127.49 130.17, 32 133.24 M201.78 133.24 C154.79 134.09, 107.12 133.82, 32 133.24 M32 133.24 C10.48 132.76, -1.39 121.84, 0 101.24 M32 133.24 C12.78 135.13, 0.91 120.7, 0 101.24 M0 101.24 C0.97 82.3, -1.19 67.31, 0 32 M0 101.24 C0.26 77.28, 1.25 55.02, 0 32 M0 32 C1.47 9.45, 11.49 -0.98, 32 0 M0 32 C2.29 8.56, 12.6 1.19, 32 0" stroke="#1e1e1e" stroke-width="2" fill="none"></path></g><g transform="translate(731.6246438862281 590.8242810184797) rotate(0 29.34996795654297 12.5)"><text x="29.34996795654297" y="17.52" font-family="Virgil, Segoe UI Emoji" font-size="20px" fill="#1e1e1e" text-anchor="middle" style="white-space: pre;" direction="ltr" dominant-baseline="alphabetic">pruner</text></g><g stroke-linecap="round"><g transform="translate(683.0655036889598 171.97537134183585) rotate(0 -2.2217302003957684 173.61666457367073)"><path d="M0.4 0.21 C-0.57 58.09, -4.37 289, -5.32 346.72 M-0.85 -0.73 C-1.49 57.37, -2.73 289.95, -3.07 347.98" stroke="#1e1e1e" stroke-width="2" fill="none"></path></g><g transform="translate(683.0655036889598 171.97537134183585) rotate(0 -2.2217302003957684 173.61666457367073)"><path d="M-11.49 324.44 C-8.36 331.05, -6.67 339.2, -3.07 347.98 M-11.49 324.44 C-10.13 329.65, -7.96 335.69, -3.07 347.98" stroke="#1e1e1e" stroke-width="2" fill="none"></path></g><g transform="translate(683.0655036889598 171.97537134183585) rotate(0 -2.2217302003957684 173.61666457367073)"><path d="M5.62 324.54 C2.86 331.17, -1.33 339.28, -3.07 347.98 M5.62 324.54 C2.85 329.64, 0.89 335.67, -3.07 347.98" stroke="#1e1e1e" stroke-width="2" fill="none"></path></g></g><mask></mask><g stroke-linecap="round" transform="translate(954.4565106053124 219.70574899888516) rotate(0 116.89224776967103 66.62146108411366)"><path d="M32 0 C81.72 -2.87, 131.27 0.3, 201.78 0 M32 0 C88.62 1.82, 145.28 -0.01, 201.78 0 M201.78 0 C222.61 1.88, 235.67 12, 233.78 32 M201.78 0 C222.1 -0.13, 234.66 12.03, 233.78 32 M233.78 32 C234.86 50.93, 231.49 72.4, 233.78 101.24 M233.78 32 C233.69 46.98, 232.97 64.2, 233.78 101.24 M233.78 101.24 C233.68 123.24, 223.14 131.26, 201.78 133.24 M233.78 101.24 C233.64 121.01, 220.98 131.63, 201.78 133.24 M201.78 133.24 C134.55 134.55, 69.96 135.88, 32 133.24 M201.78 133.24 C139.15 135.05, 75.47 133.65, 32 133.24 M32 133.24 C10.09 132.22, 0.35 124.07, 0 101.24 M32 133.24 C11.77 134.31, 0.01 121.14, 0 101.24 M0 101.24 C0.59 75.85, -0.5 48.88, 0 32 M0 101.24 C0.62 78.58, 0.31 55.28, 0 32 M0 32 C1.79 9.21, 11.65 0.65, 32 0 M0 32 C-0.23 12.72, 10.81 2.09, 32 0" stroke="#1e1e1e" stroke-width="2" fill="none"></path></g><g transform="translate(1006.2288242929526 273.8272100829986) rotate(0 65.11993408203125 12.5)"><text x="65.11993408203125" y="17.52" font-family="Virgil, Segoe UI Emoji" font-size="20px" fill="#1e1e1e" text-anchor="middle" style="white-space: pre;" direction="ltr" dominant-baseline="alphabetic">node-installer</text></g><g stroke-linecap="round" transform="translate(1274.8301035794075 217.98507985666265) rotate(0 116.89224776967103 66.62146108411366)"><path d="M32 0 C90.01 0.84, 149.34 -3, 201.78 0 M32 0 C69.75 0.71, 107.7 -0.27, 201.78 0 M201.78 0 C224.26 -0.99, 234.67 9.36, 233.78 32 M201.78 0 C223.74 -1.39, 235.13 9.49, 233.78 32 M233.78 32 C233.93 54.64, 231.67 73.36, 233.78 101.24 M233.78 32 C234.34 49.83, 233.59 66.94, 233.78 101.24 M233.78 101.24 C231.89 122.19, 222.34 133.59, 201.78 133.24 M233.78 101.24 C231.85 121.43, 223.72 134.03, 201.78 133.24 M201.78 133.24 C146.97 132.05, 96.07 132.82, 32 133.24 M201.78 133.24 C142.4 133.89, 84.43 134.68, 32 133.24 M32 133.24 C11.6 134.51, 0.25 122.67, 0 101.24 M32 133.24 C10.22 131.89, -0.82 123.7, 0 101.24 M0 101.24 C1.48 73.04, -2 48.01, 0 32 M0 101.24 C-0.11 79.17, 0.97 57.87, 0 32 M0 32 C-0.71 8.93, 9.61 0.38, 32 0 M0 32 C2.04 10.52, 8.51 -0.42, 32 0" stroke="#1e1e1e" stroke-width="2" fill="none"></path></g><g transform="translate(1337.4224093324774 272.1065409407761) rotate(0 54.29994201660156 12.5)"><text x="54.29994201660156" y="17.52" font-family="Virgil, Segoe UI Emoji" font-size="20px" fill="#1e1e1e" text-anchor="middle" style="white-space: pre;" direction="ltr" dominant-baseline="alphabetic">go-installer</text></g><g stroke-linecap="round"><g transform="translate(865.6990426134817 119.12119494218041) rotate(0 39.77761824328854 42.49239519976186)"><path d="M0.57 0.42 C13.92 14.62, 66.89 71.87, 79.97 85.81 M-0.59 -0.41 C12.65 13.41, 66.14 69.91, 79.23 84.12" stroke="#1e1e1e" stroke-width="2" fill="none"></path></g><g transform="translate(865.6990426134817 119.12119494218041) rotate(0 39.77761824328854 42.49239519976186)"><path d="M56.94 72.81 C64.16 76.68, 71.32 78.36, 79.23 84.12 M56.94 72.81 C62.55 75.32, 67.58 78.15, 79.23 84.12" stroke="#1e1e1e" stroke-width="2" fill="none"></path></g><g transform="translate(865.6990426134817 119.12119494218041) rotate(0 39.77761824328854 42.49239519976186)"><path d="M69.42 61.13 C73.08 68.44, 76.61 73.52, 79.23 84.12 M69.42 61.13 C72.22 66.21, 74.47 71.64, 79.23 84.12" stroke="#1e1e1e" stroke-width="2" fill="none"></path></g></g><mask></mask><g stroke-linecap="round"><g transform="translate(758.6504200725558 521.6744582679412) rotate(0 95.2811280064534 -74.25902281652202)"><path d="M-0.42 0.78 C31.42 -23.95, 158.95 -122.93, 190.95 -147.95 M1.56 0.14 C33.29 -24.98, 158.57 -125.01, 190.2 -149.78" stroke="#1e1e1e" stroke-width="2" fill="none"></path></g><g transform="translate(758.6504200725558 521.6744582679412) rotate(0 95.2811280064534 -74.25902281652202)"><path d="M177.09 -128.49 C182.15 -134.03, 185.63 -139.24, 190.2 -149.78 M177.09 -128.49 C179.25 -132.64, 182.62 -139.32, 190.2 -149.78" stroke="#1e1e1e" stroke-width="2" fill="none"></path></g><g transform="translate(758.6504200725558 521.6744582679412) rotate(0 95.2811280064534 -74.25902281652202)"><path d="M166.48 -141.9 C174.69 -143.48, 181.28 -144.76, 190.2 -149.78 M166.48 -141.9 C171.1 -143.05, 176.89 -146.66, 190.2 -149.78" stroke="#1e1e1e" stroke-width="2" fill="none"></path></g></g><mask></mask><g stroke-linecap="round"><g transform="translate(1203.4671726053475 280.72611190679663) rotate(0 27.767617168304696 0.4135200814473592)"><path d="M1.17 1.19 C10.14 1.56, 45.61 1.92, 54.81 1.89 M0.32 0.76 C9.59 0.86, 47.86 0.05, 57.14 0.33" stroke="#1e1e1e" stroke-width="2" fill="none"></path></g><g transform="translate(1203.4671726053475 280.72611190679663) rotate(0 27.767617168304696 0.4135200814473592)"><path d="M33.64 8.86 C44.6 4.16, 53.37 3.47, 57.14 0.33 M33.64 8.86 C41.5 5.3, 49.26 4.31, 57.14 0.33" stroke="#1e1e1e" stroke-width="2" fill="none"></path></g><g transform="translate(1203.4671726053475 280.72611190679663) rotate(0 27.767617168304696 0.4135200814473592)"><path d="M33.65 -8.24 C44.56 -6.41, 53.32 -0.59, 57.14 0.33 M33.65 -8.24 C41.43 -6.36, 49.19 -1.91, 57.14 0.33" stroke="#1e1e1e" stroke-width="2" fill="none"></path></g></g><mask></mask><g stroke-linecap="round" transform="translate(1621.2200976116492 438.7360036813343) rotate(0 116.89224776967103 66.62146108411366)"><path d="M32 0 C76.21 -1.02, 120.41 -2.39, 201.78 0 M32 0 C68.92 -0.36, 103.41 -0.47, 201.78 0 M201.78 0 C224.82 -0.63, 235.28 10.67, 233.78 32 M201.78 0 C222.4 -2.11, 234.42 10.52, 233.78 32 M233.78 32 C235.05 57.31, 232.74 84.5, 233.78 101.24 M233.78 32 C233.9 47.88, 233.81 62.76, 233.78 101.24 M233.78 101.24 C232.71 123.02, 222.81 133.53, 201.78 133.24 M233.78 101.24 C233.01 122.53, 223.27 135.41, 201.78 133.24 M201.78 133.24 C145.18 131.18, 86.72 130.35, 32 133.24 M201.78 133.24 C139.03 133.93, 75.79 135, 32 133.24 M32 133.24 C10.84 133.57, -0.37 120.6, 0 101.24 M32 133.24 C12.71 132.45, 1.14 122.6, 0 101.24 M0 101.24 C0.46 75.43, -0.33 53.43, 0 32 M0 101.24 C0.72 81.31, 0.48 62.25, 0 32 M0 32 C-1.93 12.51, 10.95 -0.81, 32 0 M0 32 C1.18 11.08, 12.71 -0.46, 32 0" stroke="#1e1e1e" stroke-width="2" fill="none"></path></g><g transform="translate(1692.4124018388393 492.8574647654482) rotate(0 45.69994354248047 12.5)"><text x="45.69994354248047" y="17.52" font-family="Virgil, Segoe UI Emoji" font-size="20px" fill="#1e1e1e" text-anchor="middle" style="white-space: pre;" direction="ltr" dominant-baseline="alphabetic">go-builder</text></g><g stroke-linecap="round"><g transform="translate(1523.843953296875 275.032600895639) rotate(0 103.55576701844075 71.50440508987322)"><path d="M-1 -0.61 C33.58 23.11, 172.28 118.92, 207.09 142.91 M0.67 1.69 C35.13 25.55, 171.67 121.15, 206.13 144.4" stroke="#1e1e1e" stroke-width="2" fill="none"></path></g><g transform="translate(1523.843953296875 275.032600895639) rotate(0 103.55576701844075 71.50440508987322)"><path d="M181.93 138.11 C187.37 139.95, 194.65 142.87, 206.13 144.4 M181.93 138.11 C189.24 139.81, 197.8 143.02, 206.13 144.4" stroke="#1e1e1e" stroke-width="2" fill="none"></path></g><g transform="translate(1523.843953296875 275.032600895639) rotate(0 103.55576701844075 71.50440508987322)"><path d="M191.64 124.03 C194.57 129.52, 199.27 136.18, 206.13 144.4 M191.64 124.03 C195.84 130.33, 201.22 138.17, 206.13 144.4" stroke="#1e1e1e" stroke-width="2" fill="none"></path></g></g><mask></mask><g stroke-linecap="round"><g transform="translate(896.3867511483613 595.4065977648484) rotate(0 356.03938000119524 -35.24085402669948)"><path d="M0.88 0.24 C119.4 -11.42, 592.9 -57.8, 711.61 -69.63 M-0.12 -0.68 C118.16 -12.7, 591.57 -59.82, 710.42 -71.3" stroke="#1e1e1e" stroke-width="2" fill="none"></path></g><g transform="translate(896.3867511483613 595.4065977648484) rotate(0 356.03938000119524 -35.24085402669948)"><path d="M687.88 -60.49 C695.89 -65.1, 704.56 -66.19, 710.42 -71.3 M687.88 -60.49 C693.62 -63.92, 700.57 -66.57, 710.42 -71.3" stroke="#1e1e1e" stroke-width="2" fill="none"></path></g><g transform="translate(896.3867511483613 595.4065977648484) rotate(0 356.03938000119524 -35.24085402669948)"><path d="M686.2 -77.51 C694.83 -76.36, 704.07 -71.68, 710.42 -71.3 M686.2 -77.51 C692.35 -76.19, 699.77 -74.08, 710.42 -71.3" stroke="#1e1e1e" stroke-width="2" fill="none"></path></g></g><mask></mask><g stroke-linecap="round" transform="translate(1615.9074229134212 645.9961014423038) rotate(0 116.89224776967103 66.62146108411366)"><path d="M32 0 C67.11 -1, 103.54 -1.15, 201.78 0 M32 0 C95.69 0.79, 159.52 1.73, 201.78 0 M201.78 0 C222.81 1.61, 235.41 8.87, 233.78 32 M201.78 0 C225.14 0.18, 231.95 10.86, 233.78 32 M233.78 32 C233.84 45.88, 232.13 61.14, 233.78 101.24 M233.78 32 C234.06 55.59, 234.63 79.72, 233.78 101.24 M233.78 101.24 C234.55 123.37, 222.96 132.02, 201.78 133.24 M233.78 101.24 C233.23 124.19, 222.54 131.49, 201.78 133.24 M201.78 133.24 C161.24 134.23, 122.18 131.94, 32 133.24 M201.78 133.24 C150.93 131.88, 98.65 133.03, 32 133.24 M32 133.24 C10.76 131.38, -1.02 121.32, 0 101.24 M32 133.24 C12.2 131.28, 1.45 121.07, 0 101.24 M0 101.24 C-0.68 82.55, 1.45 67.68, 0 32 M0 101.24 C-0.24 85.86, 1.08 70.75, 0 32 M0 32 C1.83 11.43, 10.04 -0.45, 32 0 M0 32 C-1.5 10.24, 12.2 2.27, 32 0" stroke="#1e1e1e" stroke-width="2" fill="none"></path></g><g transform="translate(1676.2797350751816 700.1175625264168) rotate(0 56.519935607910156 12.5)"><text x="56.519935607910156" y="17.52" font-family="Virgil, Segoe UI Emoji" font-size="20px" fill="#1e1e1e" text-anchor="middle" style="white-space: pre;" direction="ltr" dominant-baseline="alphabetic">node-builder</text></g><g stroke-linecap="round"><g transform="translate(895.3907207679877 617.854805011501) rotate(0 350.3256597972986 63.0092481735644)"><path d="M0.07 0.85 C116.78 22.05, 583.62 106.19, 700.42 126.99 M-1.35 0.25 C115.16 21.15, 582.43 104.29, 699.35 125.38" stroke="#1e1e1e" stroke-width="2" fill="none"></path></g><g transform="translate(895.3907207679877 617.854805011501) rotate(0 350.3256597972986 63.0092481735644)"><path d="M674.72 129.66 C683.86 127.92, 691.79 127.27, 699.35 125.38 M674.72 129.66 C681.36 128.06, 687.77 127.35, 699.35 125.38" stroke="#1e1e1e" stroke-width="2" fill="none"></path></g><g transform="translate(895.3907207679877 617.854805011501) rotate(0 350.3256597972986 63.0092481735644)"><path d="M677.73 112.83 C685.9 116.36, 692.88 120.99, 699.35 125.38 M677.73 112.83 C683.56 115.78, 689.15 119.64, 699.35 125.38" stroke="#1e1e1e" stroke-width="2" fill="none"></path></g></g><mask></mask><g stroke-linecap="round"><g transform="translate(1070.1509236452266 368.23249076208776) rotate(0 262.7403412618942 161.71776412831605)"><path d="M0.15 0.93 C87.75 55.02, 437.09 270.31, 524.69 324.07 M-1.23 0.37 C86.83 54.15, 439.26 268.21, 526.99 322.29" stroke="#1e1e1e" stroke-width="2" fill="none"></path></g><g transform="translate(1070.1509236452266 368.23249076208776) rotate(0 262.7403412618942 161.71776412831605)"><path d="M502.48 317.33 C509.54 317.1, 514.59 320.02, 526.99 322.29 M502.48 317.33 C509.49 319.55, 516.56 320.77, 526.99 322.29" stroke="#1e1e1e" stroke-width="2" fill="none"></path></g><g transform="translate(1070.1509236452266 368.23249076208776) rotate(0 262.7403412618942 161.71776412831605)"><path d="M511.4 302.74 C516.39 305.81, 519.42 312.03, 526.99 322.29 M511.4 302.74 C515.73 309.42, 520.08 315.09, 526.99 322.29" stroke="#1e1e1e" stroke-width="2" fill="none"></path></g></g><mask></mask><g stroke-linecap="round"><g transform="translate(2068.98051685873 155.97353051211758) rotate(0 14.350620955492559 125.9475884723447)"><path d="M0.98 -0.89 C5.93 41.02, 24.79 210.63, 29.32 252.61 M0.04 1.26 C4.92 43.33, 24.19 209.1, 28.69 250.87" stroke="#1e1e1e" stroke-width="2" fill="none"></path></g><g transform="translate(2068.98051685873 155.97353051211758) rotate(0 14.350620955492559 125.9475884723447)"><path d="M17.56 228.48 C19.28 235.4, 24.93 239.37, 28.69 250.87 M17.56 228.48 C20.41 233.78, 21.88 238.92, 28.69 250.87" stroke="#1e1e1e" stroke-width="2" fill="none"></path></g><g transform="translate(2068.98051685873 155.97353051211758) rotate(0 14.350620955492559 125.9475884723447)"><path d="M34.56 226.56 C31.74 234.14, 32.85 238.62, 28.69 250.87 M34.56 226.56 C33.57 232.32, 31.21 237.89, 28.69 250.87" stroke="#1e1e1e" stroke-width="2" fill="none"></path></g></g><mask></mask><g stroke-linecap="round"><g transform="translate(1870.7953144708827 503.3102508176453) rotate(0 58.47333378280291 -0.471084087813324)"><path d="M-0.23 0.85 C19 0.64, 96.69 -1.01, 116.4 -1.51 M-1.81 0.26 C17.12 0.22, 95.22 0.02, 115.17 -0.27" stroke="#1e1e1e" stroke-width="2" fill="none"></path></g><g transform="translate(1870.7953144708827 503.3102508176453) rotate(0 58.47333378280291 -0.471084087813324)"><path d="M91.74 8.46 C102.23 4.23, 108.91 3.62, 115.17 -0.27 M91.74 8.46 C96.14 7.12, 100.19 3.98, 115.17 -0.27" stroke="#1e1e1e" stroke-width="2" fill="none"></path></g><g transform="translate(1870.7953144708827 503.3102508176453) rotate(0 58.47333378280291 -0.471084087813324)"><path d="M91.61 -8.64 C102.11 -6.27, 108.85 -0.27, 115.17 -0.27 M91.61 -8.64 C96.12 -6.55, 100.19 -6.26, 115.17 -0.27" stroke="#1e1e1e" stroke-width="2" fill="none"></path></g></g><mask></mask><g stroke-linecap="round"><g transform="translate(273.3465223763933 922.0387920706862) rotate(0 864.1877939702613 1.585703153657505)"><path d="M-0.6 -0.04 C287.44 0.58, 1441.24 3.07, 1729.29 3.73 M1.28 -1.11 C289.15 -0.85, 1440.67 1.39, 1728.82 1.9" stroke="#1e1e1e" stroke-width="2" fill="none"></path></g><g transform="translate(273.3465223763933 922.0387920706862) rotate(0 864.1877939702613 1.585703153657505)"><path d="M1705.31 10.41 C1714.34 8.76, 1724.44 2.76, 1728.82 1.9 M1705.31 10.41 C1712.94 7.64, 1721.64 4.02, 1728.82 1.9" stroke="#1e1e1e" stroke-width="2" fill="none"></path></g><g transform="translate(273.3465223763933 922.0387920706862) rotate(0 864.1877939702613 1.585703153657505)"><path d="M1705.34 -6.69 C1714.36 -1.72, 1724.45 -1.11, 1728.82 1.9 M1705.34 -6.69 C1712.84 -3.25, 1721.54 -0.65, 1728.82 1.9" stroke="#1e1e1e" stroke-width="2" fill="none"></path></g></g><mask></mask><g stroke-linecap="round"><g transform="translate(1863.56634589827 712.1008077003244) rotate(0 71.13304122709587 86.39993678769451)"><path d="M-0.26 -0.61 C23.42 28.2, 119.44 143.96, 143.03 172.78 M1.81 1.69 C25.3 30.71, 118.84 145.69, 142.48 174.31" stroke="#1e1e1e" stroke-width="2" fill="none"></path></g><g transform="translate(1863.56634589827 712.1008077003244) rotate(0 71.13304122709587 86.39993678769451)"><path d="M120.98 161.55 C128.2 167.75, 137.41 169.74, 142.48 174.31 M120.98 161.55 C127.31 164.79, 133.02 168.23, 142.48 174.31" stroke="#1e1e1e" stroke-width="2" fill="none"></path></g><g transform="translate(1863.56634589827 712.1008077003244) rotate(0 71.13304122709587 86.39993678769451)"><path d="M134.21 150.71 C136.35 161.04, 140.5 167.18, 142.48 174.31 M134.21 150.71 C137.14 156.67, 139.4 162.93, 142.48 174.31" stroke="#1e1e1e" stroke-width="2" fill="none"></path></g></g><mask></mask><g stroke-linecap="round"><g transform="translate(1871.2874337219719 709.9448626326403) rotate(0 236.31261302869598 2.098979039473761)"><path d="M1.16 -0.73 C79.69 -0.25, 392.69 3.15, 471.46 4.02 M0.3 1.5 C79.17 2.69, 394.67 4.72, 473.57 5.46" stroke="#1e1e1e" stroke-width="2" fill="none"></path></g><g transform="translate(1871.2874337219719 709.9448626326403) rotate(0 236.31261302869598 2.098979039473761)"><path d="M450.01 13.83 C456.26 8.99, 464.72 10.24, 473.57 5.46 M450.01 13.83 C457.69 11.24, 466.1 8.1, 473.57 5.46" stroke="#1e1e1e" stroke-width="2" fill="none"></path></g><g transform="translate(1871.2874337219719 709.9448626326403) rotate(0 236.31261302869598 2.098979039473761)"><path d="M450.14 -3.27 C456.51 -2.64, 464.93 4.09, 473.57 5.46 M450.14 -3.27 C457.7 -0.33, 466.07 2.05, 473.57 5.46" stroke="#1e1e1e" stroke-width="2" fill="none"></path></g></g><mask></mask><g stroke-linecap="round"><g transform="translate(2072.4937440794947 159.95977026445144) rotate(0 176.5523327724959 237.22845148224565)"><path d="M-0.65 0.78 C58.15 79.84, 294.88 394.54, 353.75 473.49 M1.21 0.14 C59.83 79.39, 294.75 395.25, 353.14 474.52" stroke="#1e1e1e" stroke-width="2" fill="none"></path></g><g transform="translate(2072.4937440794947 159.95977026445144) rotate(0 176.5523327724959 237.22845148224565)"><path d="M332.28 460.73 C341.36 467.13, 346.33 470.35, 353.14 474.52 M332.28 460.73 C337.77 465.04, 344.03 469.87, 353.14 474.52" stroke="#1e1e1e" stroke-width="2" fill="none"></path></g><g transform="translate(2072.4937440794947 159.95977026445144) rotate(0 176.5523327724959 237.22845148224565)"><path d="M346.03 450.56 C349.85 460.72, 349.62 467.79, 353.14 474.52 M346.03 450.56 C347.33 458.04, 349.45 465.94, 353.14 474.52" stroke="#1e1e1e" stroke-width="2" fill="none"></path></g></g><mask></mask></svg>