<svg xmlns="http://www.w3.org/2000/svg" width="36" height="40" fill="none">
  <path d="M10.682 22.02a.455.455 0 0 0-.682.394v4.307c0 .162.087.312.227.394l2.274 1.313a.455.455 0 0 0 .683-.394v-4.307a.455.455 0 0 0-.228-.394l-2.274-1.313ZM18.4 9.424c-.195.04-.403.076-.577.176l-7.596 4.386a.455.455 0 0 0-.227.393v3.519c0 .163.087.313.227.394l2.274 1.313a.455.455 0 0 0 .683-.394v-3.099c0-.162.086-.312.227-.393l5.594-3.23a.418.418 0 0 1 .167-.056 1.585 1.585 0 0 1 1.516.765c.042.068.078.14.109.215.02.048.027.1.027.151v4.65a.455.455 0 0 1-.227.393l-4.23 2.442a.455.455 0 0 0 0 .788l5.867 3.387c.141.081.228.231.228.394v2.94c0 .163.086.314.227.395l2.092 1.208a.455.455 0 0 0 .683-.394v-6.092a.455.455 0 0 0-.228-.394l-2.501-1.444a.455.455 0 0 1 0-.788l1.046-.604a.455.455 0 0 0 .227-.394v-5.988a4.698 4.698 0 0 0-.596-2.333 4.706 4.706 0 0 0-2.588-2.151 4.722 4.722 0 0 0-2.424-.155Z"/>
  <style>
    path { fill: #000; }
    @media (prefers-color-scheme: dark) {
      path { fill: #fff; }
    }
  </style>
</svg>
